<svg xmlns="http://www.w3.org/2000/svg" width="137" height="24" viewBox="0 0 137 24"><g><g><path fill="#fff" d="M25.513 12.06c0 .431-.206.841-.548 1.093L10.582 23.749a1.273 1.273 0 0 1-1.36.101 1.354 1.354 0 0 1-.711-1.199l-.001-6.604H3.738c-.429 0-.776-.39-.776-.87s.347-.87.776-.87h4.771v-1.435H.775c-.428 0-.775-.39-.775-.87s.347-.87.775-.87H8.51v-1.39H3.737c-.429 0-.776-.389-.776-.87 0-.48.347-.869.776-.869h4.77l-.001-6.57c0-.507.273-.97.71-1.2a1.27 1.27 0 0 1 1.36.102l14.384 10.618c.342.251.543.661.552 1.107zm-3.56-.023l-10.828-7.99.025 3.956h2.638c.428 0 .775.39.775.87s-.347.87-.775.87H11.16l.008 1.39h5.158c.428 0 .775.389.775.87 0 .48-.347.869-.775.869H11.18l.01 1.436h2.598c.428 0 .775.389.775.87 0 .48-.347.869-.775.869h-2.592v4.082zm18.987 1.614c.15.47.219 1.01.203 1.606-.031 1.583-.523 2.88-1.463 3.852-.939.973-2.379 1.499-4.28 1.562a5.482 5.482 0 0 1-1.98-.254 9.92 9.92 0 0 1-1.582-.653 3.493 3.493 0 0 1-.995-.729 2.815 2.815 0 0 1-.55-.844 2.114 2.114 0 0 1-.163-.856c.009-.29.087-.542.232-.748.238-.385.544-.61.902-.657.347-.046.67.033.967.23.23.158.468.325.718.504.24.173.499.331.767.473.265.14.55.256.844.345.522.157 1.167.203 1.768-.02.268-.098.507-.24.713-.424.202-.18.366-.409.489-.682.122-.271.184-.588.184-.942 0-.33-.074-.62-.218-.862a2.912 2.912 0 0 0-.557-.681 3.287 3.287 0 0 0-.723-.491 6.195 6.195 0 0 0-.731-.315 18.312 18.312 0 0 1-1.8-.765 6.352 6.352 0 0 1-1.484-.997 4.432 4.432 0 0 1-1.021-1.391c-.255-.539-.383-1.18-.383-1.907 0-.776.156-1.47.465-2.065a4.411 4.411 0 0 1 1.224-1.477 5.31 5.31 0 0 1 1.706-.87 6.104 6.104 0 0 1 1.78-.267l.15.003c.726.015 1.41.137 2.031.36.623.224 1.15.51 1.565.848.427.347.723.733.88 1.148a1.43 1.43 0 0 1-.561 1.75 1.754 1.754 0 0 1-.564.237c-.2.044-.399.049-.591.013a1.04 1.04 0 0 1-.507-.235 27.748 27.748 0 0 0-.498-.343 5.311 5.311 0 0 0-.598-.346 4.648 4.648 0 0 0-.67-.267c-.474-.147-.993-.149-1.37.045a1.77 1.77 0 0 0-.968 1.513c0 .307.088.565.269.79.195.245.44.463.73.651.295.193.61.36.937.493.341.14.649.273.923.398.683.313 1.284.63 1.787.942.511.32.94.668 1.276 1.036.344.378.595.812.747 1.289zm14.997-9.743c.263.288.396.62.396.985v10.034c0 .96-.187 1.81-.556 2.528a5.515 5.515 0 0 1-1.458 1.8 6.093 6.093 0 0 1-2.06 1.071 8.1 8.1 0 0 1-4.685 0 6.332 6.332 0 0 1-2.069-1.057 5.579 5.579 0 0 1-1.493-1.787c-.385-.718-.58-1.578-.58-2.555V4.893c0-.332.132-.654.392-.957.267-.311.7-.468 1.29-.468.585 0 1.017.148 1.284.44.263.288.396.62.396.985v8.593c0 .633.052 1.213.154 1.722.099.495.266.922.498 1.267.226.338.539.601.93.785.4.188.922.282 1.552.282.615 0 1.126-.09 1.519-.27.384-.177.693-.434.918-.764.23-.335.39-.755.474-1.248.088-.511.132-1.108.132-1.774V4.893c0-.33.123-.65.365-.951.252-.315.695-.474 1.316-.474.586 0 1.018.148 1.285.44zM70.6 17.535c.34.35.52.759.537 1.215.017.464-.148.878-.49 1.23a1.85 1.85 0 0 1-1.365.58c-.419 0-.768-.14-1.037-.417l-5.63-6.089v5.076c0 .368-.142.701-.423.99-.281.289-.72.435-1.302.435-.592 0-1.019-.159-1.271-.474-.242-.301-.365-.621-.365-.95V5.45c0-.35.028-.626.087-.847.064-.246.184-.441.356-.58.166-.132.387-.218.675-.264.26-.04.593-.06.992-.06h3.414c.898 0 1.708.075 2.405.225.713.153 1.32.42 1.802.794.489.38.861.891 1.109 1.52.243.62.366 1.394.366 2.3 0 1.394-.318 2.481-.945 3.231-.622.745-1.47 1.245-2.521 1.487l-.457.094a1.78 1.78 0 0 1-.06.012zm-5.822-7.077c.785 0 1.383-.126 1.777-.374.36-.227.543-.74.543-1.521 0-.365-.06-.667-.179-.898a1.327 1.327 0 0 0-.477-.532 2.051 2.051 0 0 0-.74-.272 5.385 5.385 0 0 0-.924-.079h-2.162v3.676zm18.813-6.415c.264.234.407.627.424 1.168.017.551-.124.95-.42 1.189-.278.223-.664.336-1.147.336h-5.26v3.49h4.581c.485 0 .88.126 1.174.375.267.273.394.66.394 1.167 0 .526-.13.913-.387 1.149-.253.232-.64.346-1.18.346H77.19v6.122c0 .282-.142.552-.423.803-.276.247-.695.367-1.28.367-.59 0-1.003-.121-1.264-.372-.262-.25-.395-.518-.395-.798V5.195c0-.55.15-.945.446-1.173.281-.217.678-.322 1.212-.322h6.985c.487 0 .864.115 1.121.343zm13.433 14.529c.208.677.14 1.186-.202 1.517-.318.31-.744.466-1.264.466l-.088.002c-.477 0-.847-.126-1.099-.376a2.505 2.505 0 0 1-.57-.877l-1.031-2.65h-4.3l-.942 2.53a2.477 2.477 0 0 1-.621.978c-.281.261-.686.393-1.205.393-.52 0-.944-.152-1.262-.452-.345-.325-.399-.856-.158-1.577l4.656-13.96c.086-.283.274-.542.558-.764.286-.222.667-.334 1.134-.334.467 0 .848.112 1.134.334.283.221.471.48.56.77zm-4.94-4.978l-1.454-4.81-1.453 4.81zm20.255 3.325c.138.286.19.585.156.89-.038.234-.185.512-.45.862-.254.334-.612.663-1.066.976-.45.311-1.003.581-1.644.804-.645.223-1.379.337-2.181.337-1.15 0-2.238-.2-3.23-.595a7.277 7.277 0 0 1-2.595-1.746c-.726-.762-1.297-1.698-1.697-2.782-.4-1.08-.594-2.323-.579-3.69.016-1.366.221-2.601.613-3.674.392-1.075.931-1.998 1.602-2.743a6.885 6.885 0 0 1 2.402-1.725 7.492 7.492 0 0 1 2.986-.598 7.03 7.03 0 0 1 3.75 1.043c.47.298.845.618 1.115.952.284.353.44.658.476.934.035.235.02.445-.046.619-.057.148-.1.255-.132.32-.066.114-.161.222-.3.346-.14.126-.306.225-.496.296-.3.139-.65.134-.962-.036-.26-.14-.554-.32-.874-.531a7.8 7.8 0 0 0-1.09-.588c-.4-.18-.908-.272-1.508-.272-.667 0-1.265.158-1.78.469a4.237 4.237 0 0 0-1.314 1.25 5.887 5.887 0 0 0-.805 1.803 8.278 8.278 0 0 0-.275 2.137c0 .735.103 1.46.307 2.155a5.83 5.83 0 0 0 .904 1.847c.394.53.891.959 1.479 1.275.556.3 1.21.452 1.94.452h.105a4.81 4.81 0 0 0 1.058-.145 4.064 4.064 0 0 0 1.42-.685c.194-.146.39-.296.584-.45.445-.33.895-.39 1.324-.188.385.155.658.385.803.681zm12.663.69c.296.229.447.63.447 1.196 0 .565-.15.967-.447 1.196-.281.217-.722.322-1.347.322h-6.962c-.493 0-.89-.102-1.182-.304-.316-.22-.477-.62-.477-1.19V5.194c0-.55.15-.945.447-1.173.28-.217.677-.322 1.212-.322h6.984c.487 0 .864.115 1.122.343.264.234.406.627.424 1.168.016.552-.125.951-.421 1.189-.278.223-.664.336-1.147.336h-5.259v3.49h5.033c.536 0 .935.126 1.186.375.253.25.381.643.381 1.166 0 .527-.13.914-.387 1.15-.253.232-.639.346-1.18.346h-5.033v4.024h5.259c.625 0 1.066.106 1.347.322zM137 5.172v14.26c0 .513-.284 1.123-1.636 1.123-1.351 0-1.635-.61-1.635-1.123V7.108h-.896c-.456 0-.671-.21-.771-.388-.127-.223-.187-.627-.187-1.27 0-.608.082-1.027.251-1.283.185-.28.468-.42.842-.42h2.26c1.465 0 1.772.775 1.772 1.425z"/></g></g></svg>